<svg width="17" height="17" viewBox="0 0 17 17" fill="none" xmlns="http://www.w3.org/2000/svg">
<circle cx="8.33371" cy="8.33371" r="8.33371" fill="#C9CC1F"/>
<path d="M3.9246 10.704L3.19652 10.7549L3.23434 9.58762L3.96242 9.5367L4.0546 6.79781L3.31166 6.84976L3.34949 5.68247L4.09242 5.63052L4.17774 3.2206L5.47045 3.1302L5.38513 5.54012L6.44011 5.46635L6.52542 3.05643L7.81813 2.96603L7.73282 5.37596L8.49061 5.32297L8.45279 6.49026L7.69499 6.54325L7.60282 9.28214L8.36061 9.22915L8.32279 10.3964L7.56499 10.4494L7.46076 13.443L6.16805 13.5334L6.27228 10.5398L5.21731 10.6136L5.11308 13.6072L3.82037 13.6976L3.9246 10.704ZM6.3101 9.37254L6.40228 6.63365L5.34731 6.70742L5.25513 9.44631L6.3101 9.37254Z" fill="white"/>
<path d="M9.2664 12.1453C9.21445 11.4024 9.28899 10.7601 9.49002 10.2184C9.69035 9.66691 10.0751 9.04773 10.6442 8.3609C11.2035 7.67477 11.5811 7.0959 11.777 6.6243C11.9829 6.15201 12.0685 5.66822 12.0339 5.17292C12.0027 4.72716 11.907 4.42528 11.7466 4.26727C11.5954 4.09866 11.3812 4.02405 11.1038 4.04345C10.5392 4.08293 10.2808 4.44443 10.3286 5.12793L10.4065 6.24233L8.86118 6.35039L8.79053 5.34C8.73165 4.498 8.89465 3.83958 9.27953 3.36472C9.66371 2.87996 10.252 2.60987 11.0445 2.55446C11.837 2.49904 12.4571 2.68462 12.9051 3.1112C13.3523 3.52787 13.6053 4.1572 13.6642 4.9992C13.7085 5.63317 13.5983 6.26302 13.3335 6.88875C13.0785 7.51379 12.607 8.24356 11.9187 9.07807C11.4694 9.62712 11.1719 10.071 11.0264 10.4096C10.8802 10.7384 10.8199 11.086 10.8455 11.4526L10.8611 11.6754L13.9665 11.4583L14.0704 12.9442L9.34537 13.2746L9.2664 12.1453Z" fill="white"/>
</svg>
