<svg width="83" height="69" viewBox="0 0 83 69" fill="none" xmlns="http://www.w3.org/2000/svg">
<path d="M80.2342 39.2559C80.2342 55.5084 62.7948 68.6838 41.2823 68.6838C19.7698 68.6838 2.33032 55.5084 2.33032 39.2559C2.33032 39.2559 19.7698 41.3771 41.2823 41.3771C62.7948 41.3771 80.2342 39.2559 80.2342 39.2559V39.2559Z" fill="#F1F1F1"/>
<path d="M24.0227 49.207L61.3424 48.2214C61.3424 48.2214 60.5198 57.8304 41.3706 57.8304C22.2213 57.8304 24.0227 49.207 24.0227 49.207V49.207Z" fill="#003C82"/>
<path d="M82.5643 37.8613C82.5643 30.9227 78.9709 24.5641 73.0008 19.6215C73.5117 18.0974 73.772 16.5005 73.7717 14.893C73.7717 6.66777 67.1039 0 58.8787 0C52.5644 0 47.1721 3.93145 45.0053 9.47832C43.7657 9.40116 42.524 9.36228 41.282 9.36172C40.0969 9.36172 38.924 9.39824 37.7641 9.46582C35.5941 3.92559 30.2051 0 23.8957 0C15.6705 0 9.00273 6.66777 9.00273 14.893C9.00273 16.4965 9.25918 18.0396 9.72812 19.4869C3.65996 24.4484 0 30.8594 0 37.8613C0 39.0201 1.15684 41.0938 1.15684 41.0938C17.0494 60.4707 35.4422 50.4199 41.3703 50.4199C47.2984 50.4199 65.6912 60.3723 81.2768 41.0938L81.2734 41.0934C82.1098 40.102 82.5643 39.025 82.5643 37.8613V37.8613Z" fill="white"/>
<path d="M33.2461 40.2964C33.2461 41.4345 32.3236 42.3569 31.1855 42.3569C30.0475 42.3569 29.125 41.4345 29.125 40.2964C29.125 39.1583 30.0475 38.2358 31.1855 38.2358C32.3236 38.2358 33.2461 39.1583 33.2461 40.2964ZM51.3793 38.2358C50.2412 38.2358 49.3187 39.1583 49.3187 40.2964C49.3187 41.4345 50.2412 42.3569 51.3793 42.3569C52.5174 42.3569 53.4398 41.4345 53.4398 40.2964C53.4398 39.1583 52.5174 38.2358 51.3793 38.2358Z" fill="#003C82"/>
<path d="M23.896 7.06299C26.548 7.06299 28.6978 9.21279 28.6978 11.8647V17.7673C28.6978 20.4192 26.548 22.569 23.896 22.569C21.244 22.569 19.0942 20.4192 19.0942 17.7673V11.8647C19.0942 9.21279 21.244 7.06299 23.896 7.06299ZM58.8788 7.06299C56.2269 7.06299 54.0771 9.21279 54.0771 11.8647V17.7673C54.0771 20.4192 56.2269 22.569 58.8788 22.569C61.5308 22.569 63.6806 20.4192 63.6806 17.7673V11.8647C63.6806 9.21279 61.5308 7.06299 58.8788 7.06299Z" fill="#003C82"/>
</svg>
