<svg width="152" height="65" viewBox="0 0 152 65" fill="none" xmlns="http://www.w3.org/2000/svg">
<path d="M7.37209 48.7835C4.97466 48.7835 3.14662 48.1092 1.88797 46.7606C0.629324 45.3821 0 43.4192 0 40.872V24.3297C0 21.7825 0.629324 19.8345 1.88797 18.486C3.14662 17.1075 4.97466 16.4182 7.37209 16.4182C9.76951 16.4182 11.5976 17.1075 12.8562 18.486C14.1148 19.8345 14.7442 21.7825 14.7442 24.3297V27.0268H10.0692V24.0151C10.0692 21.9473 9.21511 20.9134 7.50694 20.9134C5.79878 20.9134 4.94469 21.9473 4.94469 24.0151V41.2316C4.94469 43.2694 5.79878 44.2883 7.50694 44.2883C9.21511 44.2883 10.0692 43.2694 10.0692 41.2316V35.0732H7.59684V30.578H14.7442V40.872C14.7442 43.4192 14.1148 45.3821 12.8562 46.7606C11.5976 48.1092 9.76951 48.7835 7.37209 48.7835Z" fill="white"/>
<path d="M21.7398 16.8677H28.4376L33.5621 48.334H28.6174L27.7184 42.0857V42.1756H22.0994L21.2004 48.334H16.6153L21.7398 16.8677ZM27.134 37.9051L24.9314 22.3518H24.8415L22.6838 37.9051H27.134Z" fill="white"/>
<path d="M35.961 16.8677H43.2882C45.8354 16.8677 47.6934 17.4671 48.8622 18.6658C50.0309 19.8345 50.6153 21.6476 50.6153 24.105V26.0379C50.6153 29.3044 49.5365 31.3722 47.3788 32.2412V32.3311C48.5775 32.6907 49.4166 33.425 49.8961 34.5338C50.4055 35.6426 50.6603 37.126 50.6603 38.984V44.5131C50.6603 45.4121 50.6902 46.1463 50.7502 46.7157C50.8101 47.2551 50.9599 47.7945 51.1997 48.334H46.1651C45.9853 47.8245 45.8654 47.345 45.8055 46.8955C45.7455 46.446 45.7156 45.6368 45.7156 44.4681V38.7143C45.7156 37.2758 45.4758 36.2719 44.9963 35.7025C44.5468 35.1331 43.7527 34.8484 42.6139 34.8484H40.9057V48.334H35.961V16.8677ZM42.7038 30.3533C43.6927 30.3533 44.427 30.0985 44.9064 29.5891C45.4159 29.0796 45.6706 28.2255 45.6706 27.0268V24.5994C45.6706 23.4607 45.4608 22.6365 45.0413 22.1271C44.6517 21.6176 44.0224 21.3629 43.1533 21.3629H40.9057V30.3533H42.7038Z" fill="white"/>
<path d="M54.091 16.8677H59.0357V43.8388H67.172V48.334H54.091V16.8677Z" fill="white"/>
<path d="M76.5149 48.7835C74.0875 48.7835 72.2295 48.0942 70.9409 46.7157C69.6523 45.3372 69.0079 43.3893 69.0079 40.872V24.3297C69.0079 21.8124 69.6523 19.8645 70.9409 18.486C72.2295 17.1075 74.0875 16.4182 76.5149 16.4182C78.9423 16.4182 80.8003 17.1075 82.0889 18.486C83.3775 19.8645 84.0218 21.8124 84.0218 24.3297V40.872C84.0218 43.3893 83.3775 45.3372 82.0889 46.7157C80.8003 48.0942 78.9423 48.7835 76.5149 48.7835ZM76.5149 44.2883C78.2231 44.2883 79.0771 43.2544 79.0771 41.1866V24.0151C79.0771 21.9473 78.2231 20.9134 76.5149 20.9134C74.8067 20.9134 73.9526 21.9473 73.9526 24.0151V41.1866C73.9526 43.2544 74.8067 44.2883 76.5149 44.2883Z" fill="white"/>
<path d="M94.3333 48.7835C91.9659 48.7835 90.1528 48.1092 88.8942 46.7606C87.6655 45.4121 87.0512 43.5091 87.0512 41.0518V24.1499C87.0512 21.6926 87.6655 19.7896 88.8942 18.441C90.1528 17.0925 91.9659 16.4182 94.3333 16.4182C96.7008 16.4182 98.4989 17.0925 99.7275 18.441C100.986 19.7896 101.616 21.6926 101.616 24.1499V27.4763H96.9405V23.8353C96.9405 21.8873 96.1164 20.9134 94.4682 20.9134C92.82 20.9134 91.9959 21.8873 91.9959 23.8353V41.4114C91.9959 43.3293 92.82 44.2883 94.4682 44.2883C96.1164 44.2883 96.9405 43.3293 96.9405 41.4114V36.6015H101.616V41.0518C101.616 43.5091 100.986 45.4121 99.7275 46.7606C98.4989 48.1092 96.7008 48.7835 94.3333 48.7835Z" fill="white"/>
<path d="M104.574 16.8677H109.519V30.1285L115.812 16.8677H120.757L114.868 28.4203L120.846 48.334H115.677L111.496 34.309L109.519 38.3097V48.334H104.574V16.8677Z" fill="white"/>
<path d="M8.03859 60.6632C7.92557 62.0488 7.56768 63.1195 6.96491 63.8753C6.36633 64.6251 5.56891 65 4.57267 65C3.4927 65 2.62622 64.4452 1.97322 63.3355C1.32441 62.2258 1 60.7412 1 58.8817V57.6221C1 56.4045 1.15069 55.3338 1.45208 54.41C1.75765 53.4863 2.1888 52.7785 2.74552 52.2866C3.30225 51.7888 3.94687 51.5398 4.67941 51.5398C5.65054 51.5398 6.42911 51.9297 7.01514 52.7095C7.60117 53.4833 7.94232 54.557 8.03859 55.9306H6.82678C6.72213 54.8869 6.494 54.1311 6.14238 53.6632C5.79495 53.1954 5.30729 52.9614 4.67941 52.9614C3.9092 52.9614 3.30434 53.3693 2.86482 54.1851C2.42949 55.0009 2.21182 56.1615 2.21182 57.6671V58.9357C2.21182 60.3573 2.41902 61.488 2.83343 62.3278C3.24783 63.1675 3.82758 63.5874 4.57267 63.5874C5.24241 63.5874 5.75518 63.3715 6.11099 62.9396C6.47097 62.5017 6.70957 61.7429 6.82678 60.6632H8.03859Z" fill="white"/>
<path d="M18.5225 58.6928C18.5225 59.9764 18.3718 61.0981 18.0704 62.0578C17.7691 63.0116 17.3421 63.7404 16.7896 64.2442C16.237 64.7481 15.5924 65 14.8557 65C14.1357 65 13.4973 64.7481 12.9406 64.2442C12.3839 63.7344 11.9507 63.0116 11.6409 62.0758C11.3353 61.1341 11.1784 60.0454 11.17 58.8098V57.865C11.17 56.6054 11.3228 55.4927 11.6283 54.527C11.9339 53.5613 12.3651 52.8235 12.9218 52.3136C13.4827 51.7978 14.1231 51.5398 14.8431 51.5398C15.5756 51.5398 16.2203 51.7948 16.777 52.3046C17.3379 52.8085 17.7691 53.5433 18.0704 54.509C18.3718 55.4687 18.5225 56.5874 18.5225 57.865V58.6928ZM17.3233 57.847C17.3233 56.2935 17.1056 55.1028 16.6703 54.2751C16.2349 53.4413 15.6259 53.0244 14.8431 53.0244C14.0813 53.0244 13.4806 53.4413 13.0411 54.2751C12.6057 55.1028 12.3818 56.2545 12.3692 57.7301V58.6928C12.3692 60.1984 12.589 61.383 13.0285 62.2468C13.4722 63.1045 14.0813 63.5334 14.8557 63.5334C15.6342 63.5334 16.237 63.1285 16.664 62.3188C17.0909 61.503 17.3107 60.3363 17.3233 58.8188V57.847Z" fill="white"/>
<path d="M27.2986 58.7648H23.3366V63.4075H27.939V64.8201H22.1311V51.7198H27.8763V53.1414H23.3366V57.3522H27.2986V58.7648Z" fill="white"/>
<path d="M37.6758 51.7198V60.6272C37.6716 61.8629 37.3995 62.8736 36.8595 63.6594C36.3237 64.4452 35.5954 64.886 34.6745 64.982L34.3543 65C33.3538 65 32.5564 64.6131 31.962 63.8393C31.3676 63.0656 31.0662 62.0009 31.0579 60.6452V51.7198H32.2509V60.5913C32.2509 61.539 32.4329 62.2768 32.7971 62.8046C33.1613 63.3265 33.6803 63.5874 34.3543 63.5874C35.0366 63.5874 35.5577 63.3265 35.9177 62.8046C36.2819 62.2828 36.464 61.548 36.464 60.6003V51.7198H37.6758Z" fill="white"/>
<path d="M44.7315 59.5206H42.5841V64.8201H41.3723V51.7198H44.3987C45.4284 51.7198 46.2195 52.0557 46.7721 52.7275C47.3288 53.3993 47.6072 54.377 47.6072 55.6607C47.6072 56.4764 47.4523 57.1872 47.1425 57.7931C46.837 58.3989 46.41 58.8518 45.8616 59.1517L48.009 64.7121V64.8201H46.7156L44.7315 59.5206ZM42.5841 58.108H44.4363C45.0349 58.108 45.51 57.886 45.8616 57.4422C46.2174 56.9983 46.3954 56.4045 46.3954 55.6607C46.3954 54.8509 46.2258 54.2301 45.8868 53.7982C45.5519 53.3663 45.0663 53.1474 44.4301 53.1414H42.5841V58.108Z" fill="white"/>
<path d="M56.0927 64.8201V51.7198H58.6733C59.4686 51.7198 60.1718 51.9717 60.783 52.4756C61.3941 52.9794 61.865 53.6962 62.1957 54.626C62.5306 55.5557 62.7001 56.6234 62.7043 57.829V58.6658C62.7043 59.9015 62.5369 60.9841 62.202 61.9139C61.8713 62.8436 61.3962 63.5574 60.7767 64.0553C60.1614 64.5531 59.4435 64.8081 58.623 64.8201H56.0927ZM57.2982 53.1414V63.4075H58.5665C59.4958 63.4075 60.2179 62.9936 60.7327 62.1658C61.2518 61.338 61.5113 60.1594 61.5113 58.6298V57.865C61.5113 56.3775 61.2664 55.2228 60.7767 54.401C60.2911 53.5733 59.6005 53.1534 58.7047 53.1414H57.2982Z" fill="white"/>
<path d="M66.2313 55.4087L65.572 54.7609C65.9613 53.9811 66.1622 53.1594 66.1747 52.2956V51H67.3238V52.1697C67.3196 52.7695 67.2149 53.3693 67.0098 53.9692C66.8089 54.563 66.5494 55.0428 66.2313 55.4087Z" fill="white"/>
<path d="M75.0011 61.401H71.171L70.3108 64.8201H69.0675L72.5586 51.7198H73.6134L77.1107 64.8201H75.8738L75.0011 61.401ZM71.5351 59.9794H74.6432L73.086 53.8522L71.5351 59.9794Z" fill="white"/>
<path d="M81.3535 63.4075H85.6859V64.8201H80.1417V51.7198H81.3535V63.4075Z" fill="white"/>
<path d="M94.0287 58.7648H90.0668V63.4075H94.6692V64.8201H88.8612V51.7198H94.6064V53.1414H90.0668V57.3522H94.0287V58.7648Z" fill="white"/>
<path d="M104.996 64.8201H103.784L99.1819 54.7249V64.8201H97.9701V51.7198H99.1819L103.797 61.8599V51.7198H104.996V64.8201Z" fill="white"/>
<path d="M114.105 58.7648H110.143V63.4075H114.745V64.8201H108.938V51.7198H114.683V53.1414H110.143V57.3522H114.105V58.7648Z" fill="white"/>
<path d="M8.64855 9.48923C8.52574 10.9304 8.13683 12.044 7.48183 12.8301C6.83137 13.61 5.96485 13.9999 4.88227 13.9999C3.70872 13.9999 2.76715 13.4228 2.05756 12.2686C1.35252 11.1144 1 9.57033 1 7.6363V6.32615C1 5.05967 1.16375 3.94605 1.49125 2.98527C1.82331 2.02449 2.29182 1.28831 2.89679 0.776732C3.50176 0.258911 4.20225 0 4.99826 0C6.05355 0 6.8996 0.405523 7.53641 1.21657C8.17322 2.02137 8.54393 3.13812 8.64855 4.56681H7.33172C7.218 3.48126 6.9701 2.69517 6.58802 2.20854C6.21048 1.72191 5.68056 1.4786 4.99826 1.4786C4.16131 1.4786 3.50403 1.90284 3.02642 2.75131C2.55336 3.59979 2.31683 4.807 2.31683 6.37294V7.69245C2.31683 9.17105 2.54199 10.3471 2.99231 11.2205C3.44262 12.0939 4.07261 12.5306 4.88227 12.5306C5.61006 12.5306 6.16727 12.306 6.5539 11.8569C6.94508 11.4014 7.20436 10.6122 7.33172 9.48923H8.64855Z" fill="white"/>
<path d="M14.5035 13.8127H13.1935V0.187164H14.5035V13.8127Z" fill="white"/>
<path d="M26.2193 1.66576H23.0262V13.8127H21.723V1.66576H18.5367V0.187164H26.2193V1.66576Z" fill="white"/>
<path d="M33.4866 7.02802L36.0794 0.187164H37.5668L34.1416 8.73121V13.8127H32.8316V8.73121L29.4065 0.187164H30.9076L33.4866 7.02802Z" fill="white"/>
<path d="M54.9329 9.48923C54.8101 10.9304 54.4212 12.044 53.7662 12.8301C53.1157 13.61 52.2492 13.9999 51.1666 13.9999C49.993 13.9999 49.0515 13.4228 48.3419 12.2686C47.6368 11.1144 47.2843 9.57033 47.2843 7.6363V6.32615C47.2843 5.05967 47.4481 3.94605 47.7756 2.98527C48.1076 2.02449 48.5761 1.28831 49.1811 0.776732C49.7861 0.258911 50.4866 0 51.2826 0C52.3379 0 53.1839 0.405523 53.8207 1.21657C54.4575 2.02137 54.8283 3.13812 54.9329 4.56681H53.616C53.5023 3.48126 53.2544 2.69517 52.8723 2.20854C52.4948 1.72191 51.9649 1.4786 51.2826 1.4786C50.4456 1.4786 49.7884 1.90284 49.3107 2.75131C48.8377 3.59979 48.6012 4.807 48.6012 6.37294V7.69245C48.6012 9.17105 48.8263 10.3471 49.2766 11.2205C49.7269 12.0939 50.3569 12.5306 51.1666 12.5306C51.8944 12.5306 52.4516 12.306 52.8382 11.8569C53.2294 11.4014 53.4887 10.6122 53.616 9.48923H54.9329Z" fill="white"/>
<path d="M67.024 7.43978C67.024 8.77488 66.8603 9.94154 66.5328 10.9398C66.2053 11.9317 65.7413 12.6897 65.1409 13.2138C64.5404 13.7379 63.84 13.9999 63.0394 13.9999C62.257 13.9999 61.5634 13.7379 60.9584 13.2138C60.3534 12.6835 59.8826 11.9317 59.546 10.9585C59.214 9.97897 59.0434 8.84663 59.0343 7.56144V6.57882C59.0343 5.26867 59.2003 4.11137 59.5324 3.10693C59.8644 2.10248 60.3329 1.3351 60.9379 0.804806C61.5474 0.268269 62.2434 0 63.0257 0C63.8218 0 64.5223 0.265149 65.1272 0.795448C65.7367 1.31951 66.2053 2.08376 66.5328 3.08821C66.8603 4.08642 67.024 5.24996 67.024 6.57882V7.43978ZM65.7208 6.56011C65.7208 4.94426 65.4843 3.70585 65.0112 2.8449C64.5382 1.9777 63.8763 1.54411 63.0257 1.54411C62.1979 1.54411 61.5452 1.9777 61.0676 2.8449C60.5945 3.70585 60.3511 4.9037 60.3375 6.43845V7.43978C60.3375 9.00572 60.5763 10.2379 61.0539 11.1363C61.5361 12.0284 62.1979 12.4745 63.0394 12.4745C63.8854 12.4745 64.5404 12.0534 65.0044 11.2111C65.4684 10.3627 65.7072 9.14921 65.7208 7.57079V6.56011Z" fill="white"/>
<path d="M78.6375 0.187164V9.45179C78.633 10.737 78.3373 11.7882 77.7505 12.6055C77.1683 13.4228 76.3769 13.8813 75.3761 13.9812L75.0282 13.9999C73.9411 13.9999 73.0745 13.5975 72.4286 12.7927C71.7827 11.9879 71.4552 10.8805 71.4461 9.47051V0.187164H72.7425V9.41436C72.7425 10.4001 72.9403 11.1675 73.3361 11.7165C73.7318 12.2593 74.2958 12.5306 75.0282 12.5306C75.7696 12.5306 76.3359 12.2593 76.7271 11.7165C77.1228 11.1737 77.3207 10.4095 77.3207 9.42372V0.187164H78.6375Z" fill="white"/>
<path d="M90.9948 13.8127H89.6779L84.6767 3.31281V13.8127H83.3598V0.187164H84.6767L89.6916 10.7339V0.187164H90.9948V13.8127Z" fill="white"/>
<path d="M103.284 9.48923C103.161 10.9304 102.772 12.044 102.117 12.8301C101.467 13.61 100.6 13.9999 99.5175 13.9999C98.3439 13.9999 97.4023 13.4228 96.6928 12.2686C95.9877 11.1144 95.6352 9.57033 95.6352 7.6363V6.32615C95.6352 5.05967 95.7989 3.94605 96.1264 2.98527C96.4585 2.02449 96.927 1.28831 97.532 0.776732C98.137 0.258911 98.8374 0 99.6335 0C100.689 0 101.535 0.405523 102.172 1.21657C102.808 2.02137 103.179 3.13812 103.284 4.56681H101.967C101.853 3.48126 101.605 2.69517 101.223 2.20854C100.846 1.72191 100.316 1.4786 99.6335 1.4786C98.7965 1.4786 98.1392 1.90284 97.6616 2.75131C97.1886 3.59979 96.952 4.807 96.952 6.37294V7.69245C96.952 9.17105 97.1772 10.3471 97.6275 11.2205C98.0778 12.0939 98.7078 12.5306 99.5175 12.5306C100.245 12.5306 100.802 12.306 101.189 11.8569C101.58 11.4014 101.84 10.6122 101.967 9.48923H103.284Z" fill="white"/>
<path d="M109.139 13.8127H107.829V0.187164H109.139V13.8127Z" fill="white"/>
<path d="M115.512 12.3435H120.22V13.8127H114.195V0.187164H115.512V12.3435Z" fill="white"/>
<circle cx="133.135" cy="45.5716" r="15.8653" transform="rotate(-7.86934 133.135 45.5716)" fill="#0064D5"/>
<path d="M125.618 50.7036L124.463 50.8633L124.397 48.9984L125.553 48.8388L125.404 44.4628L124.226 44.6258L124.16 42.7609L125.339 42.598L125.215 38.7472L127.266 38.4638L127.39 42.3145L129.063 42.0832L128.939 38.2324L130.99 37.9489L131.114 41.7997L132.317 41.6336L132.382 43.4984L131.18 43.6646L131.328 48.0405L132.53 47.8743L132.596 49.7391L131.394 49.9053L131.55 54.6885L129.499 54.972L129.343 50.1888L127.669 50.4201L127.826 55.2033L125.775 55.4868L125.618 50.7036ZM129.277 48.324L129.129 43.948L127.455 44.1794L127.603 48.5553L129.277 48.324Z" fill="white"/>
<path d="M135.124 52.3687C134.961 51.19 135.011 50.1581 135.273 49.273C135.533 48.3723 136.079 47.3438 136.913 46.1875C137.73 45.0335 138.27 44.07 138.531 43.2971C138.808 42.5221 138.893 41.7416 138.784 40.9559C138.686 40.2486 138.501 39.7777 138.228 39.5431C137.969 39.2907 137.62 39.1948 137.18 39.2557C136.284 39.3795 135.911 39.9836 136.061 41.068L136.305 42.836L133.854 43.1749L133.632 41.5719C133.447 40.236 133.636 39.1689 134.198 38.3704C134.759 37.5562 135.667 37.0623 136.925 36.8885C138.182 36.7147 139.191 36.9437 139.95 37.5754C140.708 38.1914 141.18 39.1673 141.364 40.5031C141.503 41.509 141.395 42.5249 141.041 43.5509C140.702 44.5747 140.029 45.7889 139.022 47.1933C138.364 48.117 137.938 48.8566 137.743 49.4122C137.545 49.952 137.486 50.5127 137.567 51.0942L137.616 51.4478L142.543 50.7668L142.868 53.1242L135.372 54.1603L135.124 52.3687Z" fill="white"/>
</svg>
