<svg width="80" height="39" viewBox="0 0 80 39" fill="none" xmlns="http://www.w3.org/2000/svg">
<path d="M3.8724 27.0892C2.61308 27.0892 1.65285 26.735 0.991711 26.0267C0.33057 25.3025 0 24.2715 0 22.9335V14.2442C0 12.9062 0.33057 11.883 0.991711 11.1746C1.65285 10.4505 2.61308 10.0884 3.8724 10.0884C5.13171 10.0884 6.09194 10.4505 6.75308 11.1746C7.41422 11.883 7.74479 12.9062 7.74479 14.2442V15.6609H5.28913V14.0789C5.28913 12.9927 4.84049 12.4497 3.94323 12.4497C3.04597 12.4497 2.59734 12.9927 2.59734 14.0789V23.1224C2.59734 24.1928 3.04597 24.728 3.94323 24.728C4.84049 24.728 5.28913 24.1928 5.28913 23.1224V19.8875H3.99046V17.5263H7.74479V22.9335C7.74479 24.2715 7.41422 25.3025 6.75308 26.0267C6.09194 26.735 5.13171 27.0892 3.8724 27.0892Z" fill="white"/>
<path d="M11.4194 10.3246H14.9376L17.6294 26.8531H15.0321L14.5599 23.571V23.6182H11.6083L11.1361 26.8531H8.72765L11.4194 10.3246ZM14.2529 21.3751L13.0959 13.2052H13.0487L11.9153 21.3751H14.2529Z" fill="white"/>
<path d="M18.8896 10.3246H22.7383C24.0764 10.3246 25.0523 10.6394 25.6662 11.269C26.2802 11.883 26.5871 12.8353 26.5871 14.1261V15.1414C26.5871 16.8573 26.0204 17.9434 24.887 18.3999V18.4471C25.5167 18.636 25.9575 19.0217 26.2093 19.6041C26.4769 20.1866 26.6107 20.9658 26.6107 21.9417V24.846C26.6107 25.3183 26.6265 25.704 26.658 26.003C26.6894 26.2864 26.7681 26.5697 26.8941 26.8531H24.2495C24.1551 26.5855 24.0921 26.3336 24.0606 26.0975C24.0291 25.8614 24.0134 25.4364 24.0134 24.8224V21.8001C24.0134 21.0445 23.8875 20.5171 23.6356 20.2181C23.3995 19.919 22.9823 19.7694 22.3842 19.7694H21.4869V26.8531H18.8896V10.3246ZM22.4314 17.4082C22.9508 17.4082 23.3365 17.2744 23.5884 17.0068C23.856 16.7392 23.9898 16.2906 23.9898 15.6609V14.3859C23.9898 13.7877 23.8796 13.3548 23.6592 13.0872C23.4546 12.8196 23.124 12.6858 22.6675 12.6858H21.4869V17.4082H22.4314Z" fill="white"/>
<path d="M28.4128 10.3246H31.0102V24.4919H35.284V26.8531H28.4128V10.3246Z" fill="white"/>
<path d="M40.1916 27.0892C38.9165 27.0892 37.9406 26.7271 37.2637 26.003C36.5868 25.2789 36.2484 24.2557 36.2484 22.9335V14.2442C36.2484 12.9219 36.5868 11.8987 37.2637 11.1746C37.9406 10.4505 38.9165 10.0884 40.1916 10.0884C41.4667 10.0884 42.4426 10.4505 43.1195 11.1746C43.7964 11.8987 44.1348 12.9219 44.1348 14.2442V22.9335C44.1348 24.2557 43.7964 25.2789 43.1195 26.003C42.4426 26.7271 41.4667 27.0892 40.1916 27.0892ZM40.1916 24.728C41.0889 24.728 41.5375 24.1849 41.5375 23.0987V14.0789C41.5375 12.9927 41.0889 12.4497 40.1916 12.4497C39.2943 12.4497 38.8457 12.9927 38.8457 14.0789V23.0987C38.8457 24.1849 39.2943 24.728 40.1916 24.728Z" fill="white"/>
<path d="M49.5512 27.0892C48.3077 27.0892 47.3553 26.735 46.6942 26.0267C46.0488 25.3183 45.7261 24.3187 45.7261 23.0279V14.1497C45.7261 12.8589 46.0488 11.8594 46.6942 11.151C47.3553 10.4426 48.3077 10.0884 49.5512 10.0884C50.7948 10.0884 51.7393 10.4426 52.3847 11.151C53.0458 11.8594 53.3764 12.8589 53.3764 14.1497V15.897H50.9208V13.9844C50.9208 12.9613 50.4879 12.4497 49.6221 12.4497C48.7563 12.4497 48.3234 12.9613 48.3234 13.9844V23.2168C48.3234 24.2243 48.7563 24.728 49.6221 24.728C50.4879 24.728 50.9208 24.2243 50.9208 23.2168V20.6903H53.3764V23.0279C53.3764 24.3187 53.0458 25.3183 52.3847 26.0267C51.7393 26.735 50.7948 27.0892 49.5512 27.0892Z" fill="white"/>
<path d="M54.9304 10.3246H57.5277V17.2902L60.8334 10.3246H63.4308L60.3376 16.3929L63.478 26.8531H60.7626L58.5667 19.4861L57.5277 21.5876V26.8531H54.9304V10.3246Z" fill="white"/>
<path d="M4.07184 5.11305C4.00881 5.84621 3.80924 6.41274 3.47311 6.81264C3.13932 7.20937 2.69465 7.40774 2.13911 7.40774C1.53688 7.40774 1.05369 7.11416 0.689556 6.527C0.327752 5.93984 0.146851 5.15431 0.146851 4.17042V3.50392C0.146851 2.85963 0.230882 2.2931 0.398946 1.80433C0.569344 1.31556 0.809768 0.941043 1.12022 0.680788C1.43067 0.41736 1.79014 0.285645 2.19863 0.285645C2.74017 0.285645 3.17433 0.491945 3.50112 0.904544C3.82791 1.31397 4.01815 1.88209 4.07184 2.6089H3.39608C3.33773 2.05665 3.21051 1.65674 3.01444 1.40918C2.8207 1.16162 2.54876 1.03785 2.19863 1.03785C1.76913 1.03785 1.43184 1.25367 1.18674 1.68531C0.943986 2.11695 0.822607 2.73109 0.822607 3.52772V4.19899C0.822607 4.95119 0.93815 5.54946 1.16924 5.99379C1.40033 6.43813 1.72361 6.6603 2.13911 6.6603C2.51258 6.6603 2.79852 6.54604 2.99693 6.31753C3.19767 6.08584 3.33072 5.68435 3.39608 5.11305H4.07184Z" fill="white"/>
<path d="M9.91807 4.07045C9.91807 4.74965 9.83404 5.34316 9.66598 5.85097C9.49791 6.35561 9.25982 6.74123 8.95171 7.00784C8.64359 7.27444 8.28412 7.40774 7.8733 7.40774C7.47181 7.40774 7.11584 7.27444 6.80539 7.00784C6.49494 6.73806 6.25335 6.35561 6.08062 5.86049C5.91022 5.3622 5.82269 4.78615 5.81802 4.13234V3.63246C5.81802 2.96595 5.90322 2.37721 6.07362 1.86622C6.24401 1.35523 6.48444 0.964847 6.79489 0.695071C7.10767 0.422121 7.46481 0.285645 7.86629 0.285645C8.27478 0.285645 8.63425 0.420534 8.9447 0.69031C9.25749 0.956912 9.49791 1.34571 9.66598 1.8567C9.83404 2.36451 9.91807 2.95643 9.91807 3.63246V4.07045ZM9.24932 3.62294C9.24932 2.80091 9.12794 2.17091 8.88518 1.73292C8.64242 1.29175 8.30279 1.07117 7.86629 1.07117C7.44147 1.07117 7.10651 1.29175 6.86141 1.73292C6.61865 2.17091 6.49377 2.78028 6.48677 3.56105V4.07045C6.48677 4.86708 6.60932 5.49391 6.85441 5.95095C7.10184 6.40481 7.44147 6.63174 7.8733 6.63174C8.30746 6.63174 8.64359 6.4175 8.88168 5.98903C9.11977 5.55739 9.24232 4.94008 9.24932 4.1371V3.62294Z" fill="white"/>
<path d="M14.8119 4.10853H12.6026V6.56509H15.1691V7.31252H11.9304V0.380861H15.1341V1.13306H12.6026V3.3611H14.8119V4.10853Z" fill="white"/>
<path d="M20.5987 0.380861V5.09401C20.5963 5.74782 20.4446 6.28261 20.1435 6.69839C19.8447 7.11416 19.4386 7.34744 18.925 7.39822L18.7465 7.40774C18.1886 7.40774 17.7439 7.20303 17.4125 6.7936C17.081 6.38418 16.9129 5.82082 16.9083 5.10353V0.380861H17.5735V5.07497C17.5735 5.57643 17.675 5.96682 17.8781 6.24611C18.0812 6.52224 18.3706 6.6603 18.7465 6.6603C19.1269 6.6603 19.4175 6.52224 19.6183 6.24611C19.8214 5.96999 19.9229 5.5812 19.9229 5.07973V0.380861H20.5987Z" fill="white"/>
<path d="M24.5332 4.50844H23.3357V7.31252H22.66V0.380861H24.3476C24.9218 0.380861 25.363 0.558596 25.6711 0.914066C25.9815 1.26954 26.1368 1.78687 26.1368 2.46607C26.1368 2.89771 26.0504 3.27381 25.8777 3.59437C25.7073 3.91493 25.4692 4.15455 25.1634 4.31325L26.3609 7.2554V7.31252H25.6396L24.5332 4.50844ZM23.3357 3.761H24.3686C24.7024 3.761 24.9673 3.64357 25.1634 3.4087C25.3618 3.17384 25.461 2.85963 25.461 2.46607C25.461 2.0376 25.3665 1.70911 25.1774 1.4806C24.9907 1.25208 24.7199 1.13623 24.3651 1.13306H23.3357V3.761Z" fill="white"/>
<path d="M30.8686 7.31252V0.380861H32.3077C32.7512 0.380861 33.1433 0.514162 33.4841 0.780764C33.8249 1.04737 34.0875 1.42664 34.2719 1.91859C34.4586 2.41053 34.5532 2.97547 34.5555 3.61342V4.05617C34.5555 4.70998 34.4621 5.28285 34.2754 5.7748C34.091 6.26674 33.8261 6.64443 33.4806 6.90786C33.1375 7.17129 32.7371 7.30618 32.2796 7.31252H30.8686ZM31.5409 1.13306V6.56509H32.2481C32.7663 6.56509 33.169 6.34609 33.4561 5.9081C33.7455 5.47011 33.8903 4.84645 33.8903 4.03712V3.63246C33.8903 2.84535 33.7537 2.23438 33.4806 1.79957C33.2098 1.36158 32.8247 1.13941 32.3252 1.13306H31.5409Z" fill="white"/>
<path d="M36.5223 2.33277L36.1546 1.99C36.3717 1.5774 36.4838 1.14258 36.4908 0.685549V0H37.1315V0.618899C37.1292 0.936282 37.0708 1.25367 36.9564 1.57105C36.8444 1.88526 36.6997 2.13917 36.5223 2.33277Z" fill="white"/>
<path d="M41.4126 5.50344H39.2768L38.7972 7.31252H38.1039L40.0506 0.380861H40.6388L42.5891 7.31252H41.8993L41.4126 5.50344ZM39.4799 4.75124H41.2131L40.3447 1.50916L39.4799 4.75124Z" fill="white"/>
<path d="M44.955 6.56509H47.3709V7.31252H44.2792V0.380861H44.955V6.56509Z" fill="white"/>
<path d="M52.0232 4.10853H49.8139V6.56509H52.3803V7.31252H49.1416V0.380861H52.3453V1.13306H49.8139V3.3611H52.0232V4.10853Z" fill="white"/>
<path d="M58.139 7.31252H57.4633L54.8968 1.97095V7.31252H54.2211V0.380861H54.8968L57.4703 5.74623V0.380861H58.139V7.31252Z" fill="white"/>
<path d="M63.2185 4.10853H61.0091V6.56509H63.5756V7.31252H60.3369V0.380861H63.5406V1.13306H61.0091V3.3611H63.2185V4.10853Z" fill="white"/>
<path d="M4.30523 35.7426C4.23846 36.6005 4.02701 37.2634 3.6709 37.7313C3.31726 38.1955 2.84615 38.4276 2.25757 38.4276C1.61953 38.4276 1.10762 38.0841 0.721827 37.3971C0.338509 36.71 0.146851 35.7909 0.146851 34.6396V33.8597C0.146851 33.1058 0.235879 32.4429 0.413936 31.871C0.594467 31.2991 0.849187 30.8608 1.1781 30.5563C1.50701 30.2481 1.88785 30.0939 2.32063 30.0939C2.89437 30.0939 3.35435 30.3353 3.70058 30.8181C4.0468 31.2972 4.24835 31.962 4.30523 32.8124H3.58929C3.52746 32.1662 3.39269 31.6983 3.18495 31.4086C2.97969 31.1189 2.69158 30.9741 2.32063 30.9741C1.8656 30.9741 1.50825 31.2266 1.24858 31.7317C0.991386 32.2368 0.862789 32.9554 0.862789 33.8876V34.673C0.862789 35.5532 0.985203 36.2532 1.23003 36.7732C1.47486 37.2931 1.81737 37.553 2.25757 37.553C2.65325 37.553 2.9562 37.4194 3.1664 37.152C3.37908 36.8809 3.52005 36.4111 3.58929 35.7426H4.30523Z" fill="white"/>
<path d="M7.48845 38.3162H6.77622V30.2053H7.48845V38.3162Z" fill="white"/>
<path d="M13.8581 31.0855H12.1221V38.3162H11.4136V31.0855H9.68122V30.2053H13.8581V31.0855Z" fill="white"/>
<path d="M17.8092 34.2775L19.2189 30.2053H20.0275L18.1654 35.2914V38.3162H17.4531V35.2914L15.5909 30.2053H16.407L17.8092 34.2775Z" fill="white"/>
<path d="M29.4692 35.7426C29.4024 36.6005 29.1909 37.2634 28.8348 37.7313C28.4812 38.1955 28.0101 38.4276 27.4215 38.4276C26.7835 38.4276 26.2716 38.0841 25.8858 37.3971C25.5024 36.71 25.3108 35.7909 25.3108 34.6396V33.8597C25.3108 33.1058 25.3998 32.4429 25.5779 31.871C25.7584 31.2991 26.0131 30.8608 26.342 30.5563C26.6709 30.2481 27.0518 30.0939 27.4846 30.0939C28.0583 30.0939 28.5183 30.3353 28.8645 30.8181C29.2107 31.2972 29.4123 31.962 29.4692 32.8124H28.7532C28.6914 32.1662 28.5566 31.6983 28.3489 31.4086C28.1436 31.1189 27.8555 30.9741 27.4846 30.9741C27.0295 30.9741 26.6722 31.2266 26.4125 31.7317C26.1553 32.2368 26.0267 32.9554 26.0267 33.8876V34.673C26.0267 35.5532 26.1491 36.2532 26.394 36.7732C26.6388 37.2931 26.9813 37.553 27.4215 37.553C27.8172 37.553 28.1201 37.4194 28.3303 37.152C28.543 36.8809 28.684 36.4111 28.7532 35.7426H29.4692Z" fill="white"/>
<path d="M36.0429 34.5226C36.0429 35.3174 35.9539 36.0118 35.7758 36.606C35.5977 37.1965 35.3455 37.6477 35.0191 37.9597C34.6926 38.2717 34.3118 38.4276 33.8765 38.4276C33.4512 38.4276 33.074 38.2717 32.7451 37.9597C32.4162 37.644 32.1603 37.1965 31.9772 36.6172C31.7967 36.0341 31.704 35.3601 31.699 34.595V34.0101C31.699 33.2302 31.7893 32.5413 31.9698 31.9434C32.1504 31.3455 32.4051 30.8887 32.734 30.573C33.0654 30.2536 33.4437 30.0939 33.8691 30.0939C34.3019 30.0939 34.6827 30.2518 35.0116 30.5674C35.343 30.8794 35.5977 31.3343 35.7758 31.9323C35.9539 32.5265 36.0429 33.2191 36.0429 34.0101V34.5226ZM35.3344 33.999C35.3344 33.0371 35.2058 32.2999 34.9486 31.7874C34.6914 31.2712 34.3316 31.0131 33.8691 31.0131C33.419 31.0131 33.0641 31.2712 32.8045 31.7874C32.5473 32.2999 32.415 33.013 32.4076 33.9265V34.5226C32.4076 35.4548 32.5374 36.1882 32.7971 36.723C33.0592 37.2541 33.419 37.5196 33.8765 37.5196C34.3365 37.5196 34.6926 37.2689 34.9449 36.7676C35.1971 36.2625 35.327 35.5402 35.3344 34.6006V33.999Z" fill="white"/>
<path d="M42.3569 30.2053V35.7203C42.3545 36.4853 42.1937 37.1111 41.8747 37.5976C41.5582 38.0841 41.1279 38.3571 40.5838 38.4165L40.3946 38.4276C39.8036 38.4276 39.3324 38.1881 38.9813 37.709C38.6301 37.2299 38.4521 36.5708 38.4471 35.7314V30.2053H39.1519V35.698C39.1519 36.2848 39.2595 36.7416 39.4746 37.0684C39.6898 37.3915 39.9965 37.553 40.3946 37.553C40.7977 37.553 41.1056 37.3915 41.3183 37.0684C41.5334 36.7453 41.641 36.2904 41.641 35.7036V30.2053H42.3569Z" fill="white"/>
<path d="M49.0753 38.3162H48.3594L45.6403 32.0659V38.3162H44.9244V30.2053H45.6403L48.3668 36.4835V30.2053H49.0753V38.3162Z" fill="white"/>
<path d="M55.7566 35.7426C55.6899 36.6005 55.4784 37.2634 55.1223 37.7313C54.7687 38.1955 54.2976 38.4276 53.709 38.4276C53.0709 38.4276 52.559 38.0841 52.1732 37.3971C51.7899 36.71 51.5983 35.7909 51.5983 34.6396V33.8597C51.5983 33.1058 51.6873 32.4429 51.8653 31.871C52.0459 31.2991 52.3006 30.8608 52.6295 30.5563C52.9584 30.2481 53.3393 30.0939 53.772 30.0939C54.3458 30.0939 54.8058 30.3353 55.152 30.8181C55.4982 31.2972 55.6998 31.962 55.7566 32.8124H55.0407C54.9789 32.1662 54.8441 31.6983 54.6364 31.4086C54.4311 31.1189 54.143 30.9741 53.772 30.9741C53.317 30.9741 52.9597 31.2266 52.7 31.7317C52.4428 32.2368 52.3142 32.9554 52.3142 33.8876V34.673C52.3142 35.5532 52.4366 36.2532 52.6814 36.7732C52.9263 37.2931 53.2688 37.553 53.709 37.553C54.1047 37.553 54.4076 37.4194 54.6178 37.152C54.8305 36.8809 54.9715 36.4111 55.0407 35.7426H55.7566Z" fill="white"/>
<path d="M58.9399 38.3162H58.2276V30.2053H58.9399V38.3162Z" fill="white"/>
<path d="M62.405 37.4416H64.9646V38.3162H61.6891V30.2053H62.405V37.4416Z" fill="white"/>
<circle cx="70.9834" cy="25.9271" r="8.33371" fill="#898A51"/>
<path d="M66.768 27.636L66.2218 27.6742L66.2502 26.7984L66.7964 26.7602L66.8656 24.7053L66.3082 24.7442L66.3366 23.8685L66.894 23.8295L66.958 22.0214L67.9278 21.9536L67.8638 23.7617L68.6554 23.7063L68.7194 21.8982L69.6892 21.8304L69.6252 23.6385L70.1938 23.5987L70.1654 24.4745L69.5969 24.5143L69.5277 26.5692L70.0962 26.5294L70.0679 27.4052L69.4993 27.445L69.4211 29.691L68.4512 29.7588L68.5294 27.5128L67.7379 27.5681L67.6597 29.8141L66.6898 29.8819L66.768 27.636ZM68.5578 26.637L68.627 24.5821L67.8355 24.6374L67.7663 26.6924L68.5578 26.637Z" fill="white"/>
<path d="M71.1691 28.7173C71.1301 28.1599 71.186 27.678 71.3368 27.2717C71.4872 26.8579 71.7758 26.3933 72.2028 25.878C72.6224 25.3632 72.9057 24.9289 73.0527 24.5751C73.2072 24.2207 73.2714 23.8578 73.2454 23.4862C73.2221 23.1517 73.1502 22.9252 73.0299 22.8067C72.9165 22.6802 72.7557 22.6242 72.5476 22.6388C72.124 22.6684 71.9301 22.9396 71.966 23.4524L72.0245 24.2885L70.8651 24.3696L70.812 23.6115C70.7679 22.9798 70.8902 22.4858 71.1789 22.1295C71.4672 21.7658 71.9086 21.5632 72.5031 21.5216C73.0977 21.48 73.563 21.6193 73.899 21.9393C74.2346 22.2519 74.4244 22.7241 74.4686 23.3558C74.5019 23.8315 74.4192 24.304 74.2205 24.7735C74.0292 25.2424 73.6754 25.79 73.1591 26.4161C72.8219 26.828 72.5987 27.161 72.4895 27.4151C72.3798 27.6618 72.3346 27.9226 72.3538 28.1976L72.3655 28.3648L74.6954 28.2019L74.7734 29.3167L71.2283 29.5646L71.1691 28.7173Z" fill="white"/>
</svg>
