<svg width="96" height="78" viewBox="0 0 96 78" fill="none" xmlns="http://www.w3.org/2000/svg">
<path d="M95.5125 9.57075C92.0333 11.1124 88.2958 12.1541 84.3667 12.6249C88.4208 10.199 91.4539 6.38102 92.9 1.88325C89.091 4.1457 84.9223 5.73823 80.575 6.59158C77.6516 3.47019 73.7794 1.40127 69.5597 0.706056C65.34 0.0108382 61.0087 0.728212 57.2385 2.7468C53.4682 4.76539 50.4699 7.97225 48.709 11.8695C46.9481 15.7668 46.5231 20.1364 47.5 24.2999C39.782 23.9124 32.2318 21.9064 25.3393 18.412C18.4468 14.9177 12.366 10.0131 7.49167 4.01658C5.82501 6.89158 4.86667 10.2249 4.86667 13.7749C4.86482 16.9707 5.65181 20.1176 7.15784 22.9363C8.66386 25.755 10.8423 28.1584 13.5 29.9332C10.4178 29.8352 7.40365 29.0023 4.70834 27.5041V27.7541C4.70803 32.2363 6.25848 36.5807 9.0966 40.0499C11.9347 43.5191 15.8857 45.8996 20.2792 46.7874C17.4199 47.5612 14.4222 47.6752 11.5125 47.1207C12.7521 50.9775 15.1667 54.35 18.4182 56.7663C21.6698 59.1825 25.5955 60.5215 29.6458 60.5957C22.7701 65.9933 14.2787 68.9211 5.53751 68.9082C3.9891 68.9087 2.44199 68.8182 0.904175 68.6374C9.77699 74.3423 20.1056 77.37 30.6542 77.3582C66.3625 77.3582 85.8833 47.7832 85.8833 22.1332C85.8833 21.2999 85.8625 20.4582 85.825 19.6249C89.6221 16.879 92.8996 13.4786 95.5042 9.58325L95.5125 9.57075V9.57075Z" fill="white"/>
</svg>
