<svg width="181" height="163" viewBox="0 0 181 163" fill="none" xmlns="http://www.w3.org/2000/svg">
<path opacity="0.31" d="M196.2 95.1513H218V121.114H196.2C181.158 121.114 166.334 116.57 152.6 108.132C125.35 125.008 92.65 125.008 65.4 108.132C51.666 116.57 36.733 121.114 21.8 121.114H0V95.1513H21.8C36.951 95.1513 52.102 89.0502 65.4 77.8865C91.996 100.084 126.004 100.084 152.6 77.8865C165.898 89.0502 181.049 95.1513 196.2 95.1513ZM196.2 17.2648H218V43.227H196.2C181.158 43.227 166.334 38.6836 152.6 30.2459C125.35 47.1213 92.65 47.1213 65.4 30.2459C51.666 38.6836 36.733 43.227 21.8 43.227H0V17.2648H21.8C36.951 17.2648 52.102 11.1637 65.4 0C91.996 22.1977 126.004 22.1977 152.6 0C165.898 11.1637 181.049 17.2648 196.2 17.2648ZM196.2 173.038H218V199H196.2C181.158 199 166.334 194.457 152.6 186.019C125.35 202.894 92.65 202.894 65.4 186.019C51.666 194.457 36.733 199 21.8 199H0V173.038H21.8C36.951 173.038 52.102 166.937 65.4 155.773C91.996 177.971 126.004 177.971 152.6 155.773C165.898 166.937 181.049 173.038 196.2 173.038Z" fill="url(#paint0_linear)"/>
<defs>
<linearGradient id="paint0_linear" x1="109" y1="0" x2="109" y2="199" gradientUnits="userSpaceOnUse">
<stop stop-color="#0466D9" stop-opacity="0.57"/>
<stop offset="1" stop-color="#95C6FF" stop-opacity="0"/>
</linearGradient>
</defs>
</svg>
